<svg xmlns="http://www.w3.org/2000/svg" width="16" height="16" viewBox="0 0 16 16" fill="none">
    <path fill="white" d="M8 0C3.58 0 0 3.58 0 8c0 3.54 2.29 6.55 5.47 7.61.4.07.55-.18.55-.39v-1.44c-2.22.48-2.68-.99-2.68-.99-.36-.92-.89-1.17-.89-1.17-.73-.5.06-.49.06-.49.8.06 1.22.81 1.22.81.71 1.24 1.87.88 2.33.67.07-.51.27-.88.49-1.08-1.88-.22-3.85-.94-3.85-4.19 0-.92.33-1.67.87-2.26-.09-.22-.38-1.14.09-2.37 0 0 .7-.22 2.3.87.67-.19 1.39-.28 2.1-.28 1.43 0 2.77.37 4.05 1.07 1.6-.91 2.3-.87 2.3-.87.48 1.23.18 2.15.09 2.37.54.59.87 1.34.87 2.26 0 3.25-1.98 3.97-3.86 4.18.29.25.57.73.57 1.46v2.17c0 .22.15.47.56.39C13.71 14.55 16 11.54 16 8c0-4.42-3.58-8-8-8z"/>
  </svg>